ffmpeg version 8.0.1 Copyright (c) 2000-2025 the FFmpeg developers
built with Apple clang version 17.0.0 (clang-1700.6.3.2)
configuration: --prefix=/opt/homebrew/Cellar/ffmpeg/8.0.1_4 --enable-shared --enable-pthreads --enable-version3 --cc=clang --host-cflags= --host-ldflags= --enable-ffplay --enable-gpl --enable-libsvtav1 --enable-libopus --enable-libx264 --enable-libmp3lame --enable-libdav1d --enable-libvpx --enable-libx265 --enable-openssl --enable-videotoolbox --enable-audiotoolbox --enable-neon
libavutil      60.  8.100 / 60.  8.100
libavcodec     62. 11.100 / 62. 11.100
libavformat    62.  3.100 / 62.  3.100
libavdevice    62.  1.100 / 62.  1.100
libavfilter    11.  4.100 / 11.  4.100
libswscale      9.  1.100 /  9.  1.100
libswresample   6.  1.100 /  6.  1.100

Exiting with exit code 0
ffmpeg is available.
whisper_init_from_file_with_params_no_state: loading model from '/Users/akbay/Developer/turkcealtyazi/companion-app/whisper.cpp/models/ggml-large-v3.bin'
whisper_init_with_params_no_state: use gpu    = 1
whisper_init_with_params_no_state: flash attn = 1
whisper_init_with_params_no_state: gpu_device = 0
whisper_init_with_params_no_state: dtw        = 0
ggml_metal_device_init: tensor API disabled for pre-M5 and pre-A19 devices
ggml_metal_library_init: using embedded metal library
ggml_metal_library_init: loaded in 6.284 sec
ggml_metal_rsets_init: creating a residency set collection (keep_alive = 180 s)
ggml_metal_device_init: GPU name:   MTL0
ggml_metal_device_init: GPU family: MTLGPUFamilyApple9  (1009)
ggml_metal_device_init: GPU family: MTLGPUFamilyCommon3 (3003)
ggml_metal_device_init: GPU family: MTLGPUFamilyMetal4  (5002)
ggml_metal_device_init: simdgroup reduction   = true
ggml_metal_device_init: simdgroup matrix mul. = true
ggml_metal_device_init: has unified memory    = true
ggml_metal_device_init: has bfloat            = true
ggml_metal_device_init: has tensor            = false
ggml_metal_device_init: use residency sets    = true
ggml_metal_device_init: use shared buffers    = true
ggml_metal_device_init: recommendedMaxWorkingSetSize  = 12713.12 MB
whisper_init_with_params_no_state: devices    = 3
whisper_init_with_params_no_state: backends   = 3
whisper_model_load: loading model
whisper_model_load: n_vocab       = 51866
whisper_model_load: n_audio_ctx   = 1500
whisper_model_load: n_audio_state = 1280
whisper_model_load: n_audio_head  = 20
whisper_model_load: n_audio_layer = 32
whisper_model_load: n_text_ctx    = 448
whisper_model_load: n_text_state  = 1280
whisper_model_load: n_text_head   = 20
whisper_model_load: n_text_layer  = 32
whisper_model_load: n_mels        = 128
whisper_model_load: ftype         = 1
whisper_model_load: qntvr         = 0
whisper_model_load: type          = 5 (large v3)
whisper_model_load: adding 1609 extra tokens
whisper_model_load: n_langs       = 100
whisper_model_load:         MTL0 total size =  3094.36 MB
whisper_model_load: model size    = 3094.36 MB
whisper_backend_init_gpu: device 0: MTL0 (type: 1)
whisper_backend_init_gpu: found GPU device 0: MTL0 (type: 1, cnt: 0)
whisper_backend_init_gpu: using MTL0 backend
ggml_metal_init: allocating
ggml_metal_init: found device: Apple M4
ggml_metal_init: picking default device: Apple M4
ggml_metal_init: use fusion         = true
ggml_metal_init: use concurrency    = true
ggml_metal_init: use graph optimize = true
whisper_backend_init: using BLAS backend
whisper_init_state: kv self size  =   83.89 MB
whisper_init_state: kv cross size =  251.66 MB
whisper_init_state: kv pad  size  =    7.86 MB
whisper_init_state: loading Core ML model from '/Users/akbay/Developer/turkcealtyazi/companion-app/whisper.cpp/models/ggml-large-v3-encoder.mlmodelc'
whisper_init_state: first run on a device may take a while ...
whisper_init_state: Core ML model loaded
whisper_init_state: compute buffer (conv)   =   10.81 MB
whisper_init_state: compute buffer (cross)  =  139.83 MB
whisper_init_state: compute buffer (decode) =  100.04 MB
ffmpeg version 8.0.1 Copyright (c) 2000-2025 the FFmpeg developers
  built with Apple clang version 17.0.0 (clang-1700.6.3.2)
  configuration: --prefix=/opt/homebrew/Cellar/ffmpeg/8.0.1_4 --enable-shared --enable-pthreads --enable-version3 --cc=clang --host-cflags= --host-ldflags= --enable-ffplay --enable-gpl --enable-libsvtav1 --enable-libopus --enable-libx264 --enable-libmp3lame --enable-libdav1d --enable-libvpx --enable-libx265 --enable-openssl --enable-videotoolbox --enable-audiotoolbox --enable-neon
  libavutil      60.  8.100 / 60.  8.100
  libavcodec     62. 11.100 / 62. 11.100
  libavformat    62.  3.100 / 62.  3.100
  libavdevice    62.  1.100 / 62.  1.100
  libavfilter    11.  4.100 / 11.  4.100
  libswscale      9.  1.100 /  9.  1.100
  libswresample   6.  1.100 /  6.  1.100
Input #0, mov,mp4,m4a,3gp,3g2,mj2, from './whisper-server-20260323-034105-157569983.wav':
  Metadata:
    major_brand     : isom
    minor_version   : 512
    compatible_brands: isomiso6iso2avc1mp41
    title           : FAKİRLİK | Harbi Hayatlar | Röportaj Adam
    encoder         : Lavf58.76.100
  Duration: 00:08:29.98, start: 0.000000, bitrate: 748 kb/s
  Stream #0:0[0x1](und): Video: h264 (Main) (avc1 / 0x31637661), yuv420p(tv, bt709, progressive), 1280x720 [SAR 1:1 DAR 16:9], 616 kb/s, 24 fps, 24 tbr, 12288 tbn, start 0.041667 (default)
    Metadata:
      handler_name    : ISO Media file produced by Google Inc.
      vendor_id       : [0][0][0][0]
  Stream #0:1[0x2](eng): Audio: aac (LC) (mp4a / 0x6134706D), 44100 Hz, stereo, fltp, 127 kb/s (default)
    Metadata:
      handler_name    : ISO Media file produced by Google Inc.
      vendor_id       : [0][0][0][0]
Stream mapping:
  Stream #0:1 -> #0:0 (aac (native) -> pcm_s16le (native))
Press [q] to stop, [?] for help
Output #0, wav, to './whisper-server-20260323-034105-157569983.wav_temp.wav':
  Metadata:
    major_brand     : isom
    minor_version   : 512
    compatible_brands: isomiso6iso2avc1mp41
    INAM            : FAKİRLİK | Harbi Hayatlar | Röportaj Adam
    ISFT            : Lavf62.3.100
  Stream #0:0(eng): Audio: pcm_s16le ([1][0][0][0] / 0x0001), 16000 Hz, mono, s16, 256 kb/s (default)
    Metadata:
      encoder         : Lavc62.11.100 pcm_s16le
      handler_name    : ISO Media file produced by Google Inc.
      vendor_id       : [0][0][0][0]
[out#0/wav @ 0xa5cc1c300] video:0KiB audio:15935KiB subtitle:0KiB other streams:0KiB global headers:0KiB muxing overhead: 0.000809%
size=   15936KiB time=00:08:29.97 bitrate= 256.0kbits/s speed=2.02e+03x elapsed=0:00:00.25    

system_info: n_threads = 4 / 10 | WHISPER : COREML = 1 | OPENVINO = 0 | MTL : EMBED_LIBRARY = 1 | CPU : NEON = 1 | ARM_FMA = 1 | FP16_VA = 1 | MATMUL_INT8 = 1 | DOTPROD = 1 | SME = 1 | ACCELERATE = 1 | REPACK = 1 | 

operator(): processing 'blob' (8158935 samples, 509.9 sec), 4 threads, 1 processors, lang = tr, task = transcribe, timestamps = 1 ...

whisper_full: VAD is enabled, processing speech segments only
whisper_vad: VAD is enabled, processing speech segments only
whisper_vad_init_from_file_with_params: loading VAD model from '/Users/akbay/Developer/turkcealtyazi/companion-app/whisper.cpp/models/ggml-silero-v6.2.0.bin'
whisper_vad_init_with_params: model type: silero-16k
whisper_vad_init_with_params: model version: 6.2.0
whisper_vad_init_with_params: n_encoder_layers = 4
whisper_vad_init_with_params: encoder_in_channels[0] = 129
whisper_vad_init_with_params: encoder_in_channels[1] = 128
whisper_vad_init_with_params: encoder_in_channels[2] = 64
whisper_vad_init_with_params: encoder_in_channels[3] = 64
whisper_vad_init_with_params: encoder_out_channels[0] = 128
whisper_vad_init_with_params: encoder_out_channels[1] = 64
whisper_vad_init_with_params: encoder_out_channels[2] = 64
whisper_vad_init_with_params: encoder_out_channels[3] = 128
whisper_vad_init_with_params: lstm_input_size = 128
whisper_vad_init_with_params: lstm_hidden_size = 128
whisper_vad_init_with_params: final_conv_in = 128
whisper_vad_init_with_params: final_conv_out = 1
whisper_vad_init_with_params:          CPU total size =     0.88 MB
whisper_vad_init_with_params: model size    =    0.88 MB
whisper_backend_init_gpu: no GPU found
whisper_backend_init: using BLAS backend
whisper_vad_init_context: compute buffer (VAD)   =    1.60 MB
whisper_vad_segments_from_samples: detecting speech timestamps in 8158935 samples
whisper_vad_detect_speech: detecting speech in 8158935 samples
whisper_vad_detect_speech: n_chunks: 15936
whisper_vad_detect_speech: props size: 15936
whisper_vad_detect_speech: chunk_len: 215 < n_window: 512
whisper_vad_detect_speech: vad time = 841.77 ms processing 8158935 samples
whisper_vad_segments_from_probs: detecting speech timestamps using 15936 probabilities
whisper_vad_segments_from_probs: Merged 10 adjacent segments, now have 49 segments
whisper_vad_segments_from_probs: Final speech segments after filtering: 49
whisper_vad_segments_from_probs: VAD segment 0: start = 0.13, end = 6.14 (duration: 6.01)
whisper_vad_segments_from_probs: VAD segment 1: start = 6.34, end = 7.90 (duration: 1.56)
whisper_vad_segments_from_probs: VAD segment 2: start = 8.23, end = 12.13 (duration: 3.90)
whisper_vad_segments_from_probs: VAD segment 3: start = 14.37, end = 15.58 (duration: 1.21)
whisper_vad_segments_from_probs: VAD segment 4: start = 16.80, end = 17.85 (duration: 1.05)
whisper_vad_segments_from_probs: VAD segment 5: start = 18.21, end = 19.17 (duration: 0.96)
whisper_vad_segments_from_probs: VAD segment 6: start = 21.15, end = 24.61 (duration: 3.46)
whisper_vad_segments_from_probs: VAD segment 7: start = 25.95, end = 37.41 (duration: 11.46)
whisper_vad_segments_from_probs: VAD segment 8: start = 42.18, end = 62.30 (duration: 20.12)
whisper_vad_segments_from_probs: VAD segment 9: start = 65.63, end = 88.35 (duration: 22.72)
whisper_vad_segments_from_probs: VAD segment 10: start = 93.03, end = 96.70 (duration: 3.67)
whisper_vad_segments_from_probs: VAD segment 11: start = 98.43, end = 99.07 (duration: 0.64)
whisper_vad_segments_from_probs: VAD segment 12: start = 99.33, end = 139.71 (duration: 40.38)
whisper_vad_segments_from_probs: VAD segment 13: start = 140.61, end = 185.12 (duration: 44.51)
whisper_vad_segments_from_probs: VAD segment 14: start = 186.27, end = 189.89 (duration: 3.62)
whisper_vad_segments_from_probs: VAD segment 15: start = 191.49, end = 193.15 (duration: 1.66)
whisper_vad_segments_from_probs: VAD segment 16: start = 193.54, end = 195.45 (duration: 1.91)
whisper_vad_segments_from_probs: VAD segment 17: start = 195.78, end = 221.50 (duration: 25.72)
whisper_vad_segments_from_probs: VAD segment 18: start = 221.73, end = 224.32 (duration: 2.59)
whisper_vad_segments_from_probs: VAD segment 19: start = 224.51, end = 307.61 (duration: 83.10)
whisper_vad_segments_from_probs: VAD segment 20: start = 307.97, end = 368.19 (duration: 60.22)
whisper_vad_segments_from_probs: VAD segment 21: start = 368.39, end = 383.36 (duration: 14.97)
whisper_vad_segments_from_probs: VAD segment 22: start = 384.51, end = 386.69 (duration: 2.18)
whisper_vad_segments_from_probs: VAD segment 23: start = 386.91, end = 395.68 (duration: 8.77)
whisper_vad_segments_from_probs: VAD segment 24: start = 396.42, end = 397.79 (duration: 1.37)
whisper_vad_segments_from_probs: VAD segment 25: start = 398.40, end = 409.53 (duration: 11.13)
whisper_vad_segments_from_probs: VAD segment 26: start = 411.43, end = 413.60 (duration: 2.17)
whisper_vad_segments_from_probs: VAD segment 27: start = 414.15, end = 415.29 (duration: 1.14)
whisper_vad_segments_from_probs: VAD segment 28: start = 420.48, end = 421.12 (duration: 0.64)
whisper_vad_segments_from_probs: VAD segment 29: start = 422.15, end = 422.72 (duration: 0.57)
whisper_vad_segments_from_probs: VAD segment 30: start = 425.28, end = 426.01 (duration: 0.73)
whisper_vad_segments_from_probs: VAD segment 31: start = 427.17, end = 429.02 (duration: 1.85)
whisper_vad_segments_from_probs: VAD segment 32: start = 429.86, end = 430.62 (duration: 0.76)
whisper_vad_segments_from_probs: VAD segment 33: start = 434.43, end = 444.22 (duration: 9.79)
whisper_vad_segments_from_probs: VAD segment 34: start = 444.39, end = 447.20 (duration: 2.81)
whisper_vad_segments_from_probs: VAD segment 35: start = 447.39, end = 451.36 (duration: 3.97)
whisper_vad_segments_from_probs: VAD segment 36: start = 451.59, end = 458.97 (duration: 7.38)
whisper_vad_segments_from_probs: VAD segment 37: start = 459.20, end = 460.99 (duration: 1.79)
whisper_vad_segments_from_probs: VAD segment 38: start = 461.95, end = 462.65 (duration: 0.70)
whisper_vad_segments_from_probs: VAD segment 39: start = 462.85, end = 466.24 (duration: 3.39)
whisper_vad_segments_from_probs: VAD segment 40: start = 466.53, end = 470.97 (duration: 4.44)
whisper_vad_segments_from_probs: VAD segment 41: start = 471.62, end = 473.15 (duration: 1.53)
whisper_vad_segments_from_probs: VAD segment 42: start = 473.60, end = 475.20 (duration: 1.60)
whisper_vad_segments_from_probs: VAD segment 43: start = 475.65, end = 476.80 (duration: 1.15)
whisper_vad_segments_from_probs: VAD segment 44: start = 476.99, end = 480.80 (duration: 3.81)
whisper_vad_segments_from_probs: VAD segment 45: start = 481.19, end = 485.37 (duration: 4.18)
whisper_vad_segments_from_probs: VAD segment 46: start = 485.60, end = 486.62 (duration: 1.02)
whisper_vad_segments_from_probs: VAD segment 47: start = 486.98, end = 488.09 (duration: 1.11)
whisper_vad_segments_from_probs: VAD segment 48: start = 488.29, end = 509.76 (duration: 21.47)
whisper_vad: detected 49 speech segments
whisper_vad: Including segment 0: 0.13 - 6.24 (duration: 6.11)
whisper_vad: Including segment 1: 6.34 - 8.00 (duration: 1.66)
whisper_vad: Including segment 2: 8.23 - 12.23 (duration: 4.00)
whisper_vad: Including segment 3: 14.37 - 15.68 (duration: 1.31)
whisper_vad: Including segment 4: 16.80 - 17.95 (duration: 1.15)
whisper_vad: Including segment 5: 18.21 - 19.27 (duration: 1.06)
whisper_vad: Including segment 6: 21.15 - 24.71 (duration: 3.56)
whisper_vad: Including segment 7: 25.95 - 37.51 (duration: 11.56)
whisper_vad: Including segment 8: 42.18 - 62.40 (duration: 20.22)
whisper_vad: Including segment 9: 65.63 - 88.45 (duration: 22.82)
whisper_vad: Including segment 10: 93.03 - 96.80 (duration: 3.77)
whisper_vad: Including segment 11: 98.43 - 99.17 (duration: 0.74)
whisper_vad: Including segment 12: 99.33 - 139.81 (duration: 40.48)
whisper_vad: Including segment 13: 140.61 - 185.22 (duration: 44.61)
whisper_vad: Including segment 14: 186.27 - 189.99 (duration: 3.72)
whisper_vad: Including segment 15: 191.49 - 193.25 (duration: 1.76)
whisper_vad: Including segment 16: 193.54 - 195.55 (duration: 2.01)
whisper_vad: Including segment 17: 195.78 - 221.60 (duration: 25.82)
whisper_vad: Including segment 18: 221.73 - 224.42 (duration: 2.69)
whisper_vad: Including segment 19: 224.51 - 307.71 (duration: 83.20)
whisper_vad: Including segment 20: 307.97 - 368.29 (duration: 60.32)
whisper_vad: Including segment 21: 368.39 - 383.46 (duration: 15.07)
whisper_vad: Including segment 22: 384.51 - 386.79 (duration: 2.28)
whisper_vad: Including segment 23: 386.91 - 395.78 (duration: 8.87)
whisper_vad: Including segment 24: 396.42 - 397.89 (duration: 1.47)
whisper_vad: Including segment 25: 398.40 - 409.63 (duration: 11.23)
whisper_vad: Including segment 26: 411.43 - 413.70 (duration: 2.27)
whisper_vad: Including segment 27: 414.15 - 415.39 (duration: 1.24)
whisper_vad: Including segment 28: 420.48 - 421.22 (duration: 0.74)
whisper_vad: Including segment 29: 422.15 - 422.82 (duration: 0.67)
whisper_vad: Including segment 30: 425.28 - 426.11 (duration: 0.83)
whisper_vad: Including segment 31: 427.17 - 429.12 (duration: 1.95)
whisper_vad: Including segment 32: 429.86 - 430.72 (duration: 0.86)
whisper_vad: Including segment 33: 434.43 - 444.32 (duration: 9.89)
whisper_vad: Including segment 34: 444.39 - 447.30 (duration: 2.91)
whisper_vad: Including segment 35: 447.39 - 451.46 (duration: 4.07)
whisper_vad: Including segment 36: 451.59 - 459.07 (duration: 7.48)
whisper_vad: Including segment 37: 459.20 - 461.09 (duration: 1.89)
whisper_vad: Including segment 38: 461.95 - 462.75 (duration: 0.80)
whisper_vad: Including segment 39: 462.85 - 466.34 (duration: 3.49)
whisper_vad: Including segment 40: 466.53 - 471.07 (duration: 4.54)
whisper_vad: Including segment 41: 471.62 - 473.25 (duration: 1.63)
whisper_vad: Including segment 42: 473.60 - 475.30 (duration: 1.70)
whisper_vad: Including segment 43: 475.65 - 476.90 (duration: 1.25)
whisper_vad: Including segment 44: 476.99 - 480.90 (duration: 3.91)
whisper_vad: Including segment 45: 481.19 - 485.47 (duration: 4.28)
whisper_vad: Including segment 46: 485.60 - 486.72 (duration: 1.12)
whisper_vad: Including segment 47: 486.98 - 488.19 (duration: 1.21)
whisper_vad: Including segment 48: 488.29 - 509.76 (duration: 21.47)
whisper_vad: total duration of speech segments: 461.69 seconds
whisper_vad: vad_segment_info: orig_start: 0.13, orig_end: 6.14, vad_start: 0.00, vad_end: 6.01
whisper_vad: vad_segment_info: orig_start: 6.34, orig_end: 7.90, vad_start: 6.21, vad_end: 7.77
whisper_vad: vad_segment_info: orig_start: 8.23, orig_end: 12.13, vad_start: 7.97, vad_end: 11.87
whisper_vad: vad_segment_info: orig_start: 14.37, orig_end: 15.58, vad_start: 12.07, vad_end: 13.28
whisper_vad: vad_segment_info: orig_start: 16.80, orig_end: 17.85, vad_start: 13.48, vad_end: 14.53
whisper_vad: vad_segment_info: orig_start: 18.21, orig_end: 19.17, vad_start: 14.73, vad_end: 15.69
whisper_vad: vad_segment_info: orig_start: 21.15, orig_end: 24.61, vad_start: 15.89, vad_end: 19.35
whisper_vad: vad_segment_info: orig_start: 25.95, orig_end: 37.41, vad_start: 19.55, vad_end: 31.01
whisper_vad: vad_segment_info: orig_start: 42.18, orig_end: 62.30, vad_start: 31.21, vad_end: 51.33
whisper_vad: vad_segment_info: orig_start: 65.63, orig_end: 88.35, vad_start: 51.53, vad_end: 74.25
whisper_vad: vad_segment_info: orig_start: 93.03, orig_end: 96.70, vad_start: 74.45, vad_end: 78.12
whisper_vad: vad_segment_info: orig_start: 98.43, orig_end: 99.07, vad_start: 78.32, vad_end: 78.96
whisper_vad: vad_segment_info: orig_start: 99.33, orig_end: 139.71, vad_start: 79.16, vad_end: 119.54
whisper_vad: vad_segment_info: orig_start: 140.61, orig_end: 185.12, vad_start: 119.74, vad_end: 164.25
whisper_vad: vad_segment_info: orig_start: 186.27, orig_end: 189.89, vad_start: 164.45, vad_end: 168.07
whisper_vad: vad_segment_info: orig_start: 191.49, orig_end: 193.15, vad_start: 168.27, vad_end: 169.93
whisper_vad: vad_segment_info: orig_start: 193.54, orig_end: 195.45, vad_start: 170.13, vad_end: 172.04
whisper_vad: vad_segment_info: orig_start: 195.78, orig_end: 221.50, vad_start: 172.24, vad_end: 197.96
whisper_vad: vad_segment_info: orig_start: 221.73, orig_end: 224.32, vad_start: 198.16, vad_end: 200.75
whisper_vad: vad_segment_info: orig_start: 224.51, orig_end: 307.61, vad_start: 200.95, vad_end: 284.05
whisper_vad: vad_segment_info: orig_start: 307.97, orig_end: 368.19, vad_start: 284.25, vad_end: 344.47
whisper_vad: vad_segment_info: orig_start: 368.39, orig_end: 383.36, vad_start: 344.67, vad_end: 359.64
whisper_vad: vad_segment_info: orig_start: 384.51, orig_end: 386.69, vad_start: 359.84, vad_end: 362.02
whisper_vad: vad_segment_info: orig_start: 386.91, orig_end: 395.68, vad_start: 362.22, vad_end: 370.99
whisper_vad: vad_segment_info: orig_start: 396.42, orig_end: 397.79, vad_start: 371.19, vad_end: 372.56
whisper_vad: vad_segment_info: orig_start: 398.40, orig_end: 409.53, vad_start: 372.76, vad_end: 383.89
whisper_vad: vad_segment_info: orig_start: 411.43, orig_end: 413.60, vad_start: 384.09, vad_end: 386.26
whisper_vad: vad_segment_info: orig_start: 414.15, orig_end: 415.29, vad_start: 386.46, vad_end: 387.60
whisper_vad: vad_segment_info: orig_start: 420.48, orig_end: 421.12, vad_start: 387.80, vad_end: 388.44
whisper_vad: vad_segment_info: orig_start: 422.15, orig_end: 422.72, vad_start: 388.64, vad_end: 389.21
whisper_vad: vad_segment_info: orig_start: 425.28, orig_end: 426.01, vad_start: 389.41, vad_end: 390.14
whisper_vad: vad_segment_info: orig_start: 427.17, orig_end: 429.02, vad_start: 390.34, vad_end: 392.19
whisper_vad: vad_segment_info: orig_start: 429.86, orig_end: 430.62, vad_start: 392.39, vad_end: 393.15
whisper_vad: vad_segment_info: orig_start: 434.43, orig_end: 444.22, vad_start: 393.35, vad_end: 403.14
whisper_vad: vad_segment_info: orig_start: 444.39, orig_end: 447.20, vad_start: 403.34, vad_end: 406.15
whisper_vad: vad_segment_info: orig_start: 447.39, orig_end: 451.36, vad_start: 406.35, vad_end: 410.32
whisper_vad: vad_segment_info: orig_start: 451.59, orig_end: 458.97, vad_start: 410.52, vad_end: 417.90
whisper_vad: vad_segment_info: orig_start: 459.20, orig_end: 460.99, vad_start: 418.10, vad_end: 419.89
whisper_vad: vad_segment_info: orig_start: 461.95, orig_end: 462.65, vad_start: 420.09, vad_end: 420.79
whisper_vad: vad_segment_info: orig_start: 462.85, orig_end: 466.24, vad_start: 420.99, vad_end: 424.38
whisper_vad: vad_segment_info: orig_start: 466.53, orig_end: 470.97, vad_start: 424.58, vad_end: 429.02
whisper_vad: vad_segment_info: orig_start: 471.62, orig_end: 473.15, vad_start: 429.22, vad_end: 430.75
whisper_vad: vad_segment_info: orig_start: 473.60, orig_end: 475.20, vad_start: 430.95, vad_end: 432.55
whisper_vad: vad_segment_info: orig_start: 475.65, orig_end: 476.80, vad_start: 432.75, vad_end: 433.90
whisper_vad: vad_segment_info: orig_start: 476.99, orig_end: 480.80, vad_start: 434.10, vad_end: 437.91
whisper_vad: vad_segment_info: orig_start: 481.19, orig_end: 485.37, vad_start: 438.11, vad_end: 442.29
whisper_vad: vad_segment_info: orig_start: 485.60, orig_end: 486.62, vad_start: 442.49, vad_end: 443.51
whisper_vad: vad_segment_info: orig_start: 486.98, orig_end: 488.09, vad_start: 443.71, vad_end: 444.82
whisper_vad: vad_segment_info: orig_start: 488.29, orig_end: 509.76, vad_start: 445.02, vad_end: 466.49
whisper_vad: Created time mapping table with 146 points
whisper_vad: Reduced audio from 8158935 to 7463840 samples (8.5% reduction)
ffmpeg version 8.0.1 Copyright (c) 2000-2025 the FFmpeg developers
  built with Apple clang version 17.0.0 (clang-1700.6.3.2)
  configuration: --prefix=/opt/homebrew/Cellar/ffmpeg/8.0.1_4 --enable-shared --enable-pthreads --enable-version3 --cc=clang --host-cflags= --host-ldflags= --enable-ffplay --enable-gpl --enable-libsvtav1 --enable-libopus --enable-libx264 --enable-libmp3lame --enable-libdav1d --enable-libvpx --enable-libx265 --enable-openssl --enable-videotoolbox --enable-audiotoolbox --enable-neon
  libavutil      60.  8.100 / 60.  8.100
  libavcodec     62. 11.100 / 62. 11.100
  libavformat    62.  3.100 / 62.  3.100
  libavdevice    62.  1.100 / 62.  1.100
  libavfilter    11.  4.100 / 11.  4.100
  libswscale      9.  1.100 /  9.  1.100
  libswresample   6.  1.100 /  6.  1.100
Input #0, mov,mp4,m4a,3gp,3g2,mj2, from './whisper-server-20260323-123719-474866130.wav':
  Metadata:
    major_brand     : isom
    minor_version   : 512
    compatible_brands: isomiso6iso2avc1mp41
    title           : FAKİRLİK | Harbi Hayatlar | Röportaj Adam
    encoder         : Lavf58.76.100
  Duration: 00:08:29.98, start: 0.000000, bitrate: 748 kb/s
  Stream #0:0[0x1](und): Video: h264 (Main) (avc1 / 0x31637661), yuv420p(tv, bt709, progressive), 1280x720 [SAR 1:1 DAR 16:9], 616 kb/s, 24 fps, 24 tbr, 12288 tbn, start 0.041667 (default)
    Metadata:
      handler_name    : ISO Media file produced by Google Inc.
      vendor_id       : [0][0][0][0]
  Stream #0:1[0x2](eng): Audio: aac (LC) (mp4a / 0x6134706D), 44100 Hz, stereo, fltp, 127 kb/s (default)
    Metadata:
      handler_name    : ISO Media file produced by Google Inc.
      vendor_id       : [0][0][0][0]
Stream mapping:
  Stream #0:1 -> #0:0 (aac (native) -> pcm_s16le (native))
Press [q] to stop, [?] for help
Output #0, wav, to './whisper-server-20260323-123719-474866130.wav_temp.wav':
  Metadata:
    major_brand     : isom
    minor_version   : 512
    compatible_brands: isomiso6iso2avc1mp41
    INAM            : FAKİRLİK | Harbi Hayatlar | Röportaj Adam
    ISFT            : Lavf62.3.100
  Stream #0:0(eng): Audio: pcm_s16le ([1][0][0][0] / 0x0001), 16000 Hz, mono, s16, 256 kb/s (default)
    Metadata:
      encoder         : Lavc62.11.100 pcm_s16le
      handler_name    : ISO Media file produced by Google Inc.
      vendor_id       : [0][0][0][0]
[out#0/wav @ 0x8cb004900] video:0KiB audio:15935KiB subtitle:0KiB other streams:0KiB global headers:0KiB muxing overhead: 0.000809%
size=   15936KiB time=00:08:29.97 bitrate= 256.0kbits/s speed=2e+03x elapsed=0:00:00.25    

system_info: n_threads = 4 / 10 | WHISPER : COREML = 1 | OPENVINO = 0 | MTL : EMBED_LIBRARY = 1 | CPU : NEON = 1 | ARM_FMA = 1 | FP16_VA = 1 | MATMUL_INT8 = 1 | DOTPROD = 1 | SME = 1 | ACCELERATE = 1 | REPACK = 1 | 

operator(): processing 'blob' (8158935 samples, 509.9 sec), 4 threads, 1 processors, lang = tr, task = transcribe, timestamps = 1 ...

whisper_full: VAD is enabled, processing speech segments only
whisper_vad: VAD is enabled, processing speech segments only
whisper_vad_segments_from_samples: detecting speech timestamps in 8158935 samples
whisper_vad_detect_speech: detecting speech in 8158935 samples
whisper_vad_detect_speech: n_chunks: 15936
whisper_vad_detect_speech: props size: 15936
whisper_vad_detect_speech: chunk_len: 215 < n_window: 512
whisper_vad_detect_speech: vad time = 1695.37 ms processing 8158935 samples
whisper_vad_segments_from_probs: detecting speech timestamps using 15936 probabilities
whisper_vad_segments_from_probs: Merged 10 adjacent segments, now have 49 segments
whisper_vad_segments_from_probs: Final speech segments after filtering: 49
whisper_vad_segments_from_probs: VAD segment 0: start = 0.13, end = 6.14 (duration: 6.01)
whisper_vad_segments_from_probs: VAD segment 1: start = 6.34, end = 7.90 (duration: 1.56)
whisper_vad_segments_from_probs: VAD segment 2: start = 8.23, end = 12.13 (duration: 3.90)
whisper_vad_segments_from_probs: VAD segment 3: start = 14.37, end = 15.58 (duration: 1.21)
whisper_vad_segments_from_probs: VAD segment 4: start = 16.80, end = 17.85 (duration: 1.05)
whisper_vad_segments_from_probs: VAD segment 5: start = 18.21, end = 19.17 (duration: 0.96)
whisper_vad_segments_from_probs: VAD segment 6: start = 21.15, end = 24.61 (duration: 3.46)
whisper_vad_segments_from_probs: VAD segment 7: start = 25.95, end = 37.41 (duration: 11.46)
whisper_vad_segments_from_probs: VAD segment 8: start = 42.18, end = 62.30 (duration: 20.12)
whisper_vad_segments_from_probs: VAD segment 9: start = 65.63, end = 88.35 (duration: 22.72)
whisper_vad_segments_from_probs: VAD segment 10: start = 93.03, end = 96.70 (duration: 3.67)
whisper_vad_segments_from_probs: VAD segment 11: start = 98.43, end = 99.07 (duration: 0.64)
whisper_vad_segments_from_probs: VAD segment 12: start = 99.33, end = 139.71 (duration: 40.38)
whisper_vad_segments_from_probs: VAD segment 13: start = 140.61, end = 185.12 (duration: 44.51)
whisper_vad_segments_from_probs: VAD segment 14: start = 186.27, end = 189.89 (duration: 3.62)
whisper_vad_segments_from_probs: VAD segment 15: start = 191.49, end = 193.15 (duration: 1.66)
whisper_vad_segments_from_probs: VAD segment 16: start = 193.54, end = 195.45 (duration: 1.91)
whisper_vad_segments_from_probs: VAD segment 17: start = 195.78, end = 221.50 (duration: 25.72)
whisper_vad_segments_from_probs: VAD segment 18: start = 221.73, end = 224.32 (duration: 2.59)
whisper_vad_segments_from_probs: VAD segment 19: start = 224.51, end = 307.61 (duration: 83.10)
whisper_vad_segments_from_probs: VAD segment 20: start = 307.97, end = 368.19 (duration: 60.22)
whisper_vad_segments_from_probs: VAD segment 21: start = 368.39, end = 383.36 (duration: 14.97)
whisper_vad_segments_from_probs: VAD segment 22: start = 384.51, end = 386.69 (duration: 2.18)
whisper_vad_segments_from_probs: VAD segment 23: start = 386.91, end = 395.68 (duration: 8.77)
whisper_vad_segments_from_probs: VAD segment 24: start = 396.42, end = 397.79 (duration: 1.37)
whisper_vad_segments_from_probs: VAD segment 25: start = 398.40, end = 409.53 (duration: 11.13)
whisper_vad_segments_from_probs: VAD segment 26: start = 411.43, end = 413.60 (duration: 2.17)
whisper_vad_segments_from_probs: VAD segment 27: start = 414.15, end = 415.29 (duration: 1.14)
whisper_vad_segments_from_probs: VAD segment 28: start = 420.48, end = 421.12 (duration: 0.64)
whisper_vad_segments_from_probs: VAD segment 29: start = 422.15, end = 422.72 (duration: 0.57)
whisper_vad_segments_from_probs: VAD segment 30: start = 425.28, end = 426.01 (duration: 0.73)
whisper_vad_segments_from_probs: VAD segment 31: start = 427.17, end = 429.02 (duration: 1.85)
whisper_vad_segments_from_probs: VAD segment 32: start = 429.86, end = 430.62 (duration: 0.76)
whisper_vad_segments_from_probs: VAD segment 33: start = 434.43, end = 444.22 (duration: 9.79)
whisper_vad_segments_from_probs: VAD segment 34: start = 444.39, end = 447.20 (duration: 2.81)
whisper_vad_segments_from_probs: VAD segment 35: start = 447.39, end = 451.36 (duration: 3.97)
whisper_vad_segments_from_probs: VAD segment 36: start = 451.59, end = 458.97 (duration: 7.38)
whisper_vad_segments_from_probs: VAD segment 37: start = 459.20, end = 460.99 (duration: 1.79)
whisper_vad_segments_from_probs: VAD segment 38: start = 461.95, end = 462.65 (duration: 0.70)
whisper_vad_segments_from_probs: VAD segment 39: start = 462.85, end = 466.24 (duration: 3.39)
whisper_vad_segments_from_probs: VAD segment 40: start = 466.53, end = 470.97 (duration: 4.44)
whisper_vad_segments_from_probs: VAD segment 41: start = 471.62, end = 473.15 (duration: 1.53)
whisper_vad_segments_from_probs: VAD segment 42: start = 473.60, end = 475.20 (duration: 1.60)
whisper_vad_segments_from_probs: VAD segment 43: start = 475.65, end = 476.80 (duration: 1.15)
whisper_vad_segments_from_probs: VAD segment 44: start = 476.99, end = 480.80 (duration: 3.81)
whisper_vad_segments_from_probs: VAD segment 45: start = 481.19, end = 485.37 (duration: 4.18)
whisper_vad_segments_from_probs: VAD segment 46: start = 485.60, end = 486.62 (duration: 1.02)
whisper_vad_segments_from_probs: VAD segment 47: start = 486.98, end = 488.09 (duration: 1.11)
whisper_vad_segments_from_probs: VAD segment 48: start = 488.29, end = 509.76 (duration: 21.47)
whisper_vad: detected 49 speech segments
whisper_vad: Including segment 0: 0.13 - 6.24 (duration: 6.11)
whisper_vad: Including segment 1: 6.34 - 8.00 (duration: 1.66)
whisper_vad: Including segment 2: 8.23 - 12.23 (duration: 4.00)
whisper_vad: Including segment 3: 14.37 - 15.68 (duration: 1.31)
whisper_vad: Including segment 4: 16.80 - 17.95 (duration: 1.15)
whisper_vad: Including segment 5: 18.21 - 19.27 (duration: 1.06)
whisper_vad: Including segment 6: 21.15 - 24.71 (duration: 3.56)
whisper_vad: Including segment 7: 25.95 - 37.51 (duration: 11.56)
whisper_vad: Including segment 8: 42.18 - 62.40 (duration: 20.22)
whisper_vad: Including segment 9: 65.63 - 88.45 (duration: 22.82)
whisper_vad: Including segment 10: 93.03 - 96.80 (duration: 3.77)
whisper_vad: Including segment 11: 98.43 - 99.17 (duration: 0.74)
whisper_vad: Including segment 12: 99.33 - 139.81 (duration: 40.48)
whisper_vad: Including segment 13: 140.61 - 185.22 (duration: 44.61)
whisper_vad: Including segment 14: 186.27 - 189.99 (duration: 3.72)
whisper_vad: Including segment 15: 191.49 - 193.25 (duration: 1.76)
whisper_vad: Including segment 16: 193.54 - 195.55 (duration: 2.01)
whisper_vad: Including segment 17: 195.78 - 221.60 (duration: 25.82)
whisper_vad: Including segment 18: 221.73 - 224.42 (duration: 2.69)
whisper_vad: Including segment 19: 224.51 - 307.71 (duration: 83.20)
whisper_vad: Including segment 20: 307.97 - 368.29 (duration: 60.32)
whisper_vad: Including segment 21: 368.39 - 383.46 (duration: 15.07)
whisper_vad: Including segment 22: 384.51 - 386.79 (duration: 2.28)
whisper_vad: Including segment 23: 386.91 - 395.78 (duration: 8.87)
whisper_vad: Including segment 24: 396.42 - 397.89 (duration: 1.47)
whisper_vad: Including segment 25: 398.40 - 409.63 (duration: 11.23)
whisper_vad: Including segment 26: 411.43 - 413.70 (duration: 2.27)
whisper_vad: Including segment 27: 414.15 - 415.39 (duration: 1.24)
whisper_vad: Including segment 28: 420.48 - 421.22 (duration: 0.74)
whisper_vad: Including segment 29: 422.15 - 422.82 (duration: 0.67)
whisper_vad: Including segment 30: 425.28 - 426.11 (duration: 0.83)
whisper_vad: Including segment 31: 427.17 - 429.12 (duration: 1.95)
whisper_vad: Including segment 32: 429.86 - 430.72 (duration: 0.86)
whisper_vad: Including segment 33: 434.43 - 444.32 (duration: 9.89)
whisper_vad: Including segment 34: 444.39 - 447.30 (duration: 2.91)
whisper_vad: Including segment 35: 447.39 - 451.46 (duration: 4.07)
whisper_vad: Including segment 36: 451.59 - 459.07 (duration: 7.48)
whisper_vad: Including segment 37: 459.20 - 461.09 (duration: 1.89)
whisper_vad: Including segment 38: 461.95 - 462.75 (duration: 0.80)
whisper_vad: Including segment 39: 462.85 - 466.34 (duration: 3.49)
whisper_vad: Including segment 40: 466.53 - 471.07 (duration: 4.54)
whisper_vad: Including segment 41: 471.62 - 473.25 (duration: 1.63)
whisper_vad: Including segment 42: 473.60 - 475.30 (duration: 1.70)
whisper_vad: Including segment 43: 475.65 - 476.90 (duration: 1.25)
whisper_vad: Including segment 44: 476.99 - 480.90 (duration: 3.91)
whisper_vad: Including segment 45: 481.19 - 485.47 (duration: 4.28)
whisper_vad: Including segment 46: 485.60 - 486.72 (duration: 1.12)
whisper_vad: Including segment 47: 486.98 - 488.19 (duration: 1.21)
whisper_vad: Including segment 48: 488.29 - 509.76 (duration: 21.47)
whisper_vad: total duration of speech segments: 461.69 seconds
whisper_vad: vad_segment_info: orig_start: 0.13, orig_end: 6.14, vad_start: 0.00, vad_end: 6.01
whisper_vad: vad_segment_info: orig_start: 6.34, orig_end: 7.90, vad_start: 6.21, vad_end: 7.77
whisper_vad: vad_segment_info: orig_start: 8.23, orig_end: 12.13, vad_start: 7.97, vad_end: 11.87
whisper_vad: vad_segment_info: orig_start: 14.37, orig_end: 15.58, vad_start: 12.07, vad_end: 13.28
whisper_vad: vad_segment_info: orig_start: 16.80, orig_end: 17.85, vad_start: 13.48, vad_end: 14.53
whisper_vad: vad_segment_info: orig_start: 18.21, orig_end: 19.17, vad_start: 14.73, vad_end: 15.69
whisper_vad: vad_segment_info: orig_start: 21.15, orig_end: 24.61, vad_start: 15.89, vad_end: 19.35
whisper_vad: vad_segment_info: orig_start: 25.95, orig_end: 37.41, vad_start: 19.55, vad_end: 31.01
whisper_vad: vad_segment_info: orig_start: 42.18, orig_end: 62.30, vad_start: 31.21, vad_end: 51.33
whisper_vad: vad_segment_info: orig_start: 65.63, orig_end: 88.35, vad_start: 51.53, vad_end: 74.25
whisper_vad: vad_segment_info: orig_start: 93.03, orig_end: 96.70, vad_start: 74.45, vad_end: 78.12
whisper_vad: vad_segment_info: orig_start: 98.43, orig_end: 99.07, vad_start: 78.32, vad_end: 78.96
whisper_vad: vad_segment_info: orig_start: 99.33, orig_end: 139.71, vad_start: 79.16, vad_end: 119.54
whisper_vad: vad_segment_info: orig_start: 140.61, orig_end: 185.12, vad_start: 119.74, vad_end: 164.25
whisper_vad: vad_segment_info: orig_start: 186.27, orig_end: 189.89, vad_start: 164.45, vad_end: 168.07
whisper_vad: vad_segment_info: orig_start: 191.49, orig_end: 193.15, vad_start: 168.27, vad_end: 169.93
whisper_vad: vad_segment_info: orig_start: 193.54, orig_end: 195.45, vad_start: 170.13, vad_end: 172.04
whisper_vad: vad_segment_info: orig_start: 195.78, orig_end: 221.50, vad_start: 172.24, vad_end: 197.96
whisper_vad: vad_segment_info: orig_start: 221.73, orig_end: 224.32, vad_start: 198.16, vad_end: 200.75
whisper_vad: vad_segment_info: orig_start: 224.51, orig_end: 307.61, vad_start: 200.95, vad_end: 284.05
whisper_vad: vad_segment_info: orig_start: 307.97, orig_end: 368.19, vad_start: 284.25, vad_end: 344.47
whisper_vad: vad_segment_info: orig_start: 368.39, orig_end: 383.36, vad_start: 344.67, vad_end: 359.64
whisper_vad: vad_segment_info: orig_start: 384.51, orig_end: 386.69, vad_start: 359.84, vad_end: 362.02
whisper_vad: vad_segment_info: orig_start: 386.91, orig_end: 395.68, vad_start: 362.22, vad_end: 370.99
whisper_vad: vad_segment_info: orig_start: 396.42, orig_end: 397.79, vad_start: 371.19, vad_end: 372.56
whisper_vad: vad_segment_info: orig_start: 398.40, orig_end: 409.53, vad_start: 372.76, vad_end: 383.89
whisper_vad: vad_segment_info: orig_start: 411.43, orig_end: 413.60, vad_start: 384.09, vad_end: 386.26
whisper_vad: vad_segment_info: orig_start: 414.15, orig_end: 415.29, vad_start: 386.46, vad_end: 387.60
whisper_vad: vad_segment_info: orig_start: 420.48, orig_end: 421.12, vad_start: 387.80, vad_end: 388.44
whisper_vad: vad_segment_info: orig_start: 422.15, orig_end: 422.72, vad_start: 388.64, vad_end: 389.21
whisper_vad: vad_segment_info: orig_start: 425.28, orig_end: 426.01, vad_start: 389.41, vad_end: 390.14
whisper_vad: vad_segment_info: orig_start: 427.17, orig_end: 429.02, vad_start: 390.34, vad_end: 392.19
whisper_vad: vad_segment_info: orig_start: 429.86, orig_end: 430.62, vad_start: 392.39, vad_end: 393.15
whisper_vad: vad_segment_info: orig_start: 434.43, orig_end: 444.22, vad_start: 393.35, vad_end: 403.14
whisper_vad: vad_segment_info: orig_start: 444.39, orig_end: 447.20, vad_start: 403.34, vad_end: 406.15
whisper_vad: vad_segment_info: orig_start: 447.39, orig_end: 451.36, vad_start: 406.35, vad_end: 410.32
whisper_vad: vad_segment_info: orig_start: 451.59, orig_end: 458.97, vad_start: 410.52, vad_end: 417.90
whisper_vad: vad_segment_info: orig_start: 459.20, orig_end: 460.99, vad_start: 418.10, vad_end: 419.89
whisper_vad: vad_segment_info: orig_start: 461.95, orig_end: 462.65, vad_start: 420.09, vad_end: 420.79
whisper_vad: vad_segment_info: orig_start: 462.85, orig_end: 466.24, vad_start: 420.99, vad_end: 424.38
whisper_vad: vad_segment_info: orig_start: 466.53, orig_end: 470.97, vad_start: 424.58, vad_end: 429.02
whisper_vad: vad_segment_info: orig_start: 471.62, orig_end: 473.15, vad_start: 429.22, vad_end: 430.75
whisper_vad: vad_segment_info: orig_start: 473.60, orig_end: 475.20, vad_start: 430.95, vad_end: 432.55
whisper_vad: vad_segment_info: orig_start: 475.65, orig_end: 476.80, vad_start: 432.75, vad_end: 433.90
whisper_vad: vad_segment_info: orig_start: 476.99, orig_end: 480.80, vad_start: 434.10, vad_end: 437.91
whisper_vad: vad_segment_info: orig_start: 481.19, orig_end: 485.37, vad_start: 438.11, vad_end: 442.29
whisper_vad: vad_segment_info: orig_start: 485.60, orig_end: 486.62, vad_start: 442.49, vad_end: 443.51
whisper_vad: vad_segment_info: orig_start: 486.98, orig_end: 488.09, vad_start: 443.71, vad_end: 444.82
whisper_vad: vad_segment_info: orig_start: 488.29, orig_end: 509.76, vad_start: 445.02, vad_end: 466.49
whisper_vad: Created time mapping table with 146 points
whisper_vad: Reduced audio from 8158935 to 7463840 samples (8.5% reduction)
ffmpeg version 8.0.1 Copyright (c) 2000-2025 the FFmpeg developers
  built with Apple clang version 17.0.0 (clang-1700.6.3.2)
  configuration: --prefix=/opt/homebrew/Cellar/ffmpeg/8.0.1_4 --enable-shared --enable-pthreads --enable-version3 --cc=clang --host-cflags= --host-ldflags= --enable-ffplay --enable-gpl --enable-libsvtav1 --enable-libopus --enable-libx264 --enable-libmp3lame --enable-libdav1d --enable-libvpx --enable-libx265 --enable-openssl --enable-videotoolbox --enable-audiotoolbox --enable-neon
  libavutil      60.  8.100 / 60.  8.100
  libavcodec     62. 11.100 / 62. 11.100
  libavformat    62.  3.100 / 62.  3.100
  libavdevice    62.  1.100 / 62.  1.100
  libavfilter    11.  4.100 / 11.  4.100
  libswscale      9.  1.100 /  9.  1.100
  libswresample   6.  1.100 /  6.  1.100
Input #0, mov,mp4,m4a,3gp,3g2,mj2, from './whisper-server-20260323-134106-860541304.wav':
  Metadata:
    major_brand     : isom
    minor_version   : 1
    compatible_brands: isom
    creation_time   : 2026-03-06T16:35:24.000000Z
  Duration: 00:01:19.90, start: 0.000000, bitrate: 1319 kb/s
  Stream #0:0[0x1](und): Video: h264 (High) (avc1 / 0x31637661), yuv420p(progressive), 1280x720, 1188 kb/s, 30 fps, 30 tbr, 15360 tbn, start 0.000716 (default)
    Metadata:
      creation_time   : 2020-04-20T22:17:03.000000Z
      handler_name    : Vireo Eyes v2.5.3
      vendor_id       : [0][0][0][0]
      encoder         : AVC Coding
  Stream #0:1[0x2](und): Audio: aac (LC) (mp4a / 0x6134706D), 44100 Hz, stereo, fltp, 128 kb/s (default)
    Metadata:
      creation_time   : 2020-04-20T22:17:03.000000Z
      handler_name    : Vireo Ears v2.5.3
      vendor_id       : [0][0][0][0]
Stream mapping:
  Stream #0:1 -> #0:0 (aac (native) -> pcm_s16le (native))
Press [q] to stop, [?] for help
Output #0, wav, to './whisper-server-20260323-134106-860541304.wav_temp.wav':
  Metadata:
    major_brand     : isom
    minor_version   : 1
    compatible_brands: isom
    ISFT            : Lavf62.3.100
  Stream #0:0(und): Audio: pcm_s16le ([1][0][0][0] / 0x0001), 16000 Hz, mono, s16, 256 kb/s (default)
    Metadata:
      encoder         : Lavc62.11.100 pcm_s16le
      creation_time   : 2020-04-20T22:17:03.000000Z
      handler_name    : Vireo Ears v2.5.3
      vendor_id       : [0][0][0][0]
[out#0/wav @ 0x89ec28300] video:0KiB audio:2498KiB subtitle:0KiB other streams:0KiB global headers:0KiB muxing overhead: 0.003050%
size=    2498KiB time=00:01:19.90 bitrate= 256.1kbits/s speed=2.4e+03x elapsed=0:00:00.03    

system_info: n_threads = 4 / 10 | WHISPER : COREML = 1 | OPENVINO = 0 | MTL : EMBED_LIBRARY = 1 | CPU : NEON = 1 | ARM_FMA = 1 | FP16_VA = 1 | MATMUL_INT8 = 1 | DOTPROD = 1 | SME = 1 | ACCELERATE = 1 | REPACK = 1 | 

operator(): processing 'blob' (1278770 samples, 79.9 sec), 4 threads, 1 processors, lang = tr, task = transcribe, timestamps = 1 ...

whisper_full: VAD is enabled, processing speech segments only
whisper_vad: VAD is enabled, processing speech segments only
whisper_vad_segments_from_samples: detecting speech timestamps in 1278770 samples
whisper_vad_detect_speech: detecting speech in 1278770 samples
whisper_vad_detect_speech: n_chunks: 2498
whisper_vad_detect_speech: props size: 2498
whisper_vad_detect_speech: chunk_len: 306 < n_window: 512
whisper_vad_detect_speech: vad time = 1833.88 ms processing 1278770 samples
whisper_vad_segments_from_probs: detecting speech timestamps using 2498 probabilities
whisper_vad_segments_from_probs: Merged 0 adjacent segments, now have 9 segments
whisper_vad_segments_from_probs: Final speech segments after filtering: 9
whisper_vad_segments_from_probs: VAD segment 0: start = 0.32, end = 5.73 (duration: 5.41)
whisper_vad_segments_from_probs: VAD segment 1: start = 5.99, end = 16.54 (duration: 10.55)
whisper_vad_segments_from_probs: VAD segment 2: start = 17.25, end = 32.45 (duration: 15.20)
whisper_vad_segments_from_probs: VAD segment 3: start = 33.31, end = 36.77 (duration: 3.46)
whisper_vad_segments_from_probs: VAD segment 4: start = 37.12, end = 37.82 (duration: 0.70)
whisper_vad_segments_from_probs: VAD segment 5: start = 38.08, end = 46.97 (duration: 8.89)
whisper_vad_segments_from_probs: VAD segment 6: start = 47.43, end = 52.35 (duration: 4.92)
whisper_vad_segments_from_probs: VAD segment 7: start = 52.77, end = 74.11 (duration: 21.34)
whisper_vad_segments_from_probs: VAD segment 8: start = 74.43, end = 79.94 (duration: 5.51)
whisper_vad: detected 9 speech segments
whisper_vad: Including segment 0: 0.32 - 5.83 (duration: 5.51)
whisper_vad: Including segment 1: 5.99 - 16.64 (duration: 10.65)
whisper_vad: Including segment 2: 17.25 - 32.55 (duration: 15.30)
whisper_vad: Including segment 3: 33.31 - 36.87 (duration: 3.56)
whisper_vad: Including segment 4: 37.12 - 37.92 (duration: 0.80)
whisper_vad: Including segment 5: 38.08 - 47.07 (duration: 8.99)
whisper_vad: Including segment 6: 47.43 - 52.45 (duration: 5.02)
whisper_vad: Including segment 7: 52.77 - 74.21 (duration: 21.44)
whisper_vad: Including segment 8: 74.43 - 79.94 (duration: 5.51)
whisper_vad: total duration of speech segments: 76.76 seconds
whisper_vad: vad_segment_info: orig_start: 0.32, orig_end: 5.73, vad_start: 0.00, vad_end: 5.41
whisper_vad: vad_segment_info: orig_start: 5.99, orig_end: 16.54, vad_start: 5.61, vad_end: 16.16
whisper_vad: vad_segment_info: orig_start: 17.25, orig_end: 32.45, vad_start: 16.36, vad_end: 31.56
whisper_vad: vad_segment_info: orig_start: 33.31, orig_end: 36.77, vad_start: 31.76, vad_end: 35.22
whisper_vad: vad_segment_info: orig_start: 37.12, orig_end: 37.82, vad_start: 35.42, vad_end: 36.12
whisper_vad: vad_segment_info: orig_start: 38.08, orig_end: 46.97, vad_start: 36.32, vad_end: 45.21
whisper_vad: vad_segment_info: orig_start: 47.43, orig_end: 52.35, vad_start: 45.41, vad_end: 50.33
whisper_vad: vad_segment_info: orig_start: 52.77, orig_end: 74.11, vad_start: 50.53, vad_end: 71.87
whisper_vad: vad_segment_info: orig_start: 74.43, orig_end: 79.94, vad_start: 72.07, vad_end: 77.56
whisper_vad: Created time mapping table with 26 points
whisper_vad: Reduced audio from 1278770 to 1241009 samples (3.0% reduction)
ffmpeg version 8.0.1 Copyright (c) 2000-2025 the FFmpeg developers
  built with Apple clang version 17.0.0 (clang-1700.6.3.2)
  configuration: --prefix=/opt/homebrew/Cellar/ffmpeg/8.0.1_4 --enable-shared --enable-pthreads --enable-version3 --cc=clang --host-cflags= --host-ldflags= --enable-ffplay --enable-gpl --enable-libsvtav1 --enable-libopus --enable-libx264 --enable-libmp3lame --enable-libdav1d --enable-libvpx --enable-libx265 --enable-openssl --enable-videotoolbox --enable-audiotoolbox --enable-neon
  libavutil      60.  8.100 / 60.  8.100
  libavcodec     62. 11.100 / 62. 11.100
  libavformat    62.  3.100 / 62.  3.100
  libavdevice    62.  1.100 / 62.  1.100
  libavfilter    11.  4.100 / 11.  4.100
  libswscale      9.  1.100 /  9.  1.100
  libswresample   6.  1.100 /  6.  1.100
Input #0, mov,mp4,m4a,3gp,3g2,mj2, from './whisper-server-20260323-134632-100385861.wav':
  Metadata:
    major_brand     : isom
    minor_version   : 1
    compatible_brands: isom
    creation_time   : 2026-03-06T16:35:24.000000Z
  Duration: 00:01:19.90, start: 0.000000, bitrate: 1319 kb/s
  Stream #0:0[0x1](und): Video: h264 (High) (avc1 / 0x31637661), yuv420p(progressive), 1280x720, 1188 kb/s, 30 fps, 30 tbr, 15360 tbn, start 0.000716 (default)
    Metadata:
      creation_time   : 2020-04-20T22:17:03.000000Z
      handler_name    : Vireo Eyes v2.5.3
      vendor_id       : [0][0][0][0]
      encoder         : AVC Coding
  Stream #0:1[0x2](und): Audio: aac (LC) (mp4a / 0x6134706D), 44100 Hz, stereo, fltp, 128 kb/s (default)
    Metadata:
      creation_time   : 2020-04-20T22:17:03.000000Z
      handler_name    : Vireo Ears v2.5.3
      vendor_id       : [0][0][0][0]
Stream mapping:
  Stream #0:1 -> #0:0 (aac (native) -> pcm_s16le (native))
Press [q] to stop, [?] for help
Output #0, wav, to './whisper-server-20260323-134632-100385861.wav_temp.wav':
  Metadata:
    major_brand     : isom
    minor_version   : 1
    compatible_brands: isom
    ISFT            : Lavf62.3.100
  Stream #0:0(und): Audio: pcm_s16le ([1][0][0][0] / 0x0001), 16000 Hz, mono, s16, 256 kb/s (default)
    Metadata:
      encoder         : Lavc62.11.100 pcm_s16le
      creation_time   : 2020-04-20T22:17:03.000000Z
      handler_name    : Vireo Ears v2.5.3
      vendor_id       : [0][0][0][0]
[out#0/wav @ 0xcb0c20300] video:0KiB audio:2498KiB subtitle:0KiB other streams:0KiB global headers:0KiB muxing overhead: 0.003050%
size=    2498KiB time=00:01:19.90 bitrate= 256.1kbits/s speed=2.47e+03x elapsed=0:00:00.03    

system_info: n_threads = 4 / 10 | WHISPER : COREML = 1 | OPENVINO = 0 | MTL : EMBED_LIBRARY = 1 | CPU : NEON = 1 | ARM_FMA = 1 | FP16_VA = 1 | MATMUL_INT8 = 1 | DOTPROD = 1 | SME = 1 | ACCELERATE = 1 | REPACK = 1 | 

operator(): processing 'blob' (1278770 samples, 79.9 sec), 4 threads, 1 processors, lang = tr, task = transcribe, timestamps = 1 ...

whisper_full: VAD is enabled, processing speech segments only
whisper_vad: VAD is enabled, processing speech segments only
whisper_vad_segments_from_samples: detecting speech timestamps in 1278770 samples
whisper_vad_detect_speech: detecting speech in 1278770 samples
whisper_vad_detect_speech: n_chunks: 2498
whisper_vad_detect_speech: props size: 2498
whisper_vad_detect_speech: chunk_len: 306 < n_window: 512
whisper_vad_detect_speech: vad time = 1972.63 ms processing 1278770 samples
whisper_vad_segments_from_probs: detecting speech timestamps using 2498 probabilities
whisper_vad_segments_from_probs: Merged 0 adjacent segments, now have 9 segments
whisper_vad_segments_from_probs: Final speech segments after filtering: 9
whisper_vad_segments_from_probs: VAD segment 0: start = 0.32, end = 5.73 (duration: 5.41)
whisper_vad_segments_from_probs: VAD segment 1: start = 5.99, end = 16.54 (duration: 10.55)
whisper_vad_segments_from_probs: VAD segment 2: start = 17.25, end = 32.45 (duration: 15.20)
whisper_vad_segments_from_probs: VAD segment 3: start = 33.31, end = 36.77 (duration: 3.46)
whisper_vad_segments_from_probs: VAD segment 4: start = 37.12, end = 37.82 (duration: 0.70)
whisper_vad_segments_from_probs: VAD segment 5: start = 38.08, end = 46.97 (duration: 8.89)
whisper_vad_segments_from_probs: VAD segment 6: start = 47.43, end = 52.35 (duration: 4.92)
whisper_vad_segments_from_probs: VAD segment 7: start = 52.77, end = 74.11 (duration: 21.34)
whisper_vad_segments_from_probs: VAD segment 8: start = 74.43, end = 79.94 (duration: 5.51)
whisper_vad: detected 9 speech segments
whisper_vad: Including segment 0: 0.32 - 5.83 (duration: 5.51)
whisper_vad: Including segment 1: 5.99 - 16.64 (duration: 10.65)
whisper_vad: Including segment 2: 17.25 - 32.55 (duration: 15.30)
whisper_vad: Including segment 3: 33.31 - 36.87 (duration: 3.56)
whisper_vad: Including segment 4: 37.12 - 37.92 (duration: 0.80)
whisper_vad: Including segment 5: 38.08 - 47.07 (duration: 8.99)
whisper_vad: Including segment 6: 47.43 - 52.45 (duration: 5.02)
whisper_vad: Including segment 7: 52.77 - 74.21 (duration: 21.44)
whisper_vad: Including segment 8: 74.43 - 79.94 (duration: 5.51)
whisper_vad: total duration of speech segments: 76.76 seconds
whisper_vad: vad_segment_info: orig_start: 0.32, orig_end: 5.73, vad_start: 0.00, vad_end: 5.41
whisper_vad: vad_segment_info: orig_start: 5.99, orig_end: 16.54, vad_start: 5.61, vad_end: 16.16
whisper_vad: vad_segment_info: orig_start: 17.25, orig_end: 32.45, vad_start: 16.36, vad_end: 31.56
whisper_vad: vad_segment_info: orig_start: 33.31, orig_end: 36.77, vad_start: 31.76, vad_end: 35.22
whisper_vad: vad_segment_info: orig_start: 37.12, orig_end: 37.82, vad_start: 35.42, vad_end: 36.12
whisper_vad: vad_segment_info: orig_start: 38.08, orig_end: 46.97, vad_start: 36.32, vad_end: 45.21
whisper_vad: vad_segment_info: orig_start: 47.43, orig_end: 52.35, vad_start: 45.41, vad_end: 50.33
whisper_vad: vad_segment_info: orig_start: 52.77, orig_end: 74.11, vad_start: 50.53, vad_end: 71.87
whisper_vad: vad_segment_info: orig_start: 74.43, orig_end: 79.94, vad_start: 72.07, vad_end: 77.56
whisper_vad: Created time mapping table with 26 points
whisper_vad: Reduced audio from 1278770 to 1241009 samples (3.0% reduction)
ffmpeg version 8.0.1 Copyright (c) 2000-2025 the FFmpeg developers
  built with Apple clang version 17.0.0 (clang-1700.6.3.2)
  configuration: --prefix=/opt/homebrew/Cellar/ffmpeg/8.0.1_4 --enable-shared --enable-pthreads --enable-version3 --cc=clang --host-cflags= --host-ldflags= --enable-ffplay --enable-gpl --enable-libsvtav1 --enable-libopus --enable-libx264 --enable-libmp3lame --enable-libdav1d --enable-libvpx --enable-libx265 --enable-openssl --enable-videotoolbox --enable-audiotoolbox --enable-neon
  libavutil      60.  8.100 / 60.  8.100
  libavcodec     62. 11.100 / 62. 11.100
  libavformat    62.  3.100 / 62.  3.100
  libavdevice    62.  1.100 / 62.  1.100
  libavfilter    11.  4.100 / 11.  4.100
  libswscale      9.  1.100 /  9.  1.100
  libswresample   6.  1.100 /  6.  1.100
Input #0, mov,mp4,m4a,3gp,3g2,mj2, from './whisper-server-20260323-153204-884905039.wav':
  Metadata:
    major_brand     : qt  
    minor_version   : 0
    compatible_brands: qt  
    creation_time   : 2026-03-23T12:30:56.000000Z
    com.apple.quicktime.make: Apple
    com.apple.quicktime.model: Mac16,12
    com.apple.quicktime.software: macOS 26.4 (25E241)
    com.apple.quicktime.creationdate: 2026-03-23T15:30:13+0300
  Duration: 00:00:29.31, start: 0.000000, bitrate: 10538 kb/s
  Stream #0:0[0x1](und): Video: h264 (Main) (avc1 / 0x31637661), yuv420p(tv, bt709, progressive), 1280x720, 10299 kb/s, 30 fps, 30 tbr, 100k tbn (default)
    Metadata:
      creation_time   : 2026-03-23T12:30:56.000000Z
      handler_name    : Core Media Video
      vendor_id       : [0][0][0][0]
      encoder         : H.264
  Stream #0:1[0x2](und): Audio: aac (LC) (mp4a / 0x6134706D), 48000 Hz, mono, fltp, 246 kb/s, start 0.143937 (default)
    Metadata:
      creation_time   : 2026-03-23T12:30:56.000000Z
      handler_name    : Core Media Audio
      vendor_id       : [0][0][0][0]
Stream mapping:
  Stream #0:1 -> #0:0 (aac (native) -> pcm_s16le (native))
Press [q] to stop, [?] for help
Output #0, wav, to './whisper-server-20260323-153204-884905039.wav_temp.wav':
  Metadata:
    major_brand     : qt  
    minor_version   : 0
    compatible_brands: qt  
    com.apple.quicktime.creationdate: 2026-03-23T15:30:13+0300
    com.apple.quicktime.make: Apple
    com.apple.quicktime.model: Mac16,12
    com.apple.quicktime.software: macOS 26.4 (25E241)
    ISFT            : Lavf62.3.100
  Stream #0:0(und): Audio: pcm_s16le ([1][0][0][0] / 0x0001), 16000 Hz, mono, s16, 256 kb/s (default)
    Metadata:
      encoder         : Lavc62.11.100 pcm_s16le
      creation_time   : 2026-03-23T12:30:56.000000Z
      handler_name    : Core Media Audio
      vendor_id       : [0][0][0][0]
[out#0/wav @ 0x8bd004900] video:0KiB audio:910KiB subtitle:0KiB other streams:0KiB global headers:0KiB muxing overhead: 0.008371%
size=     910KiB time=00:00:29.26 bitrate= 254.8kbits/s speed=1.7e+03x elapsed=0:00:00.01    

system_info: n_threads = 4 / 10 | WHISPER : COREML = 1 | OPENVINO = 0 | MTL : EMBED_LIBRARY = 1 | CPU : NEON = 1 | ARM_FMA = 1 | FP16_VA = 1 | MATMUL_INT8 = 1 | DOTPROD = 1 | SME = 1 | ACCELERATE = 1 | REPACK = 1 | 

operator(): processing 'blob' (465920 samples, 29.1 sec), 4 threads, 1 processors, lang = tr, task = transcribe, timestamps = 1 ...

whisper_full: VAD is enabled, processing speech segments only
whisper_vad: VAD is enabled, processing speech segments only
whisper_vad_segments_from_samples: detecting speech timestamps in 465920 samples
whisper_vad_detect_speech: detecting speech in 465920 samples
whisper_vad_detect_speech: n_chunks: 910
whisper_vad_detect_speech: props size: 910
whisper_vad_detect_speech: vad time = 2026.18 ms processing 465920 samples
whisper_vad_segments_from_probs: detecting speech timestamps using 910 probabilities
whisper_vad_segments_from_probs: Merged 0 adjacent segments, now have 8 segments
whisper_vad_segments_from_probs: Final speech segments after filtering: 8
whisper_vad_segments_from_probs: VAD segment 0: start = 0.71, end = 1.69 (duration: 0.98)
whisper_vad_segments_from_probs: VAD segment 1: start = 3.36, end = 6.97 (duration: 3.61)
whisper_vad_segments_from_probs: VAD segment 2: start = 8.87, end = 10.08 (duration: 1.21)
whisper_vad_segments_from_probs: VAD segment 3: start = 11.84, end = 15.81 (duration: 3.97)
whisper_vad_segments_from_probs: VAD segment 4: start = 17.83, end = 19.52 (duration: 1.69)
whisper_vad_segments_from_probs: VAD segment 5: start = 21.03, end = 24.22 (duration: 3.19)
whisper_vad_segments_from_probs: VAD segment 6: start = 24.77, end = 25.53 (duration: 0.76)
whisper_vad_segments_from_probs: VAD segment 7: start = 26.27, end = 27.65 (duration: 1.38)
whisper_vad: detected 8 speech segments
whisper_vad: Including segment 0: 0.71 - 1.79 (duration: 1.08)
whisper_vad: Including segment 1: 3.36 - 7.07 (duration: 3.71)
whisper_vad: Including segment 2: 8.87 - 10.18 (duration: 1.31)
whisper_vad: Including segment 3: 11.84 - 15.91 (duration: 4.07)
whisper_vad: Including segment 4: 17.83 - 19.62 (duration: 1.79)
whisper_vad: Including segment 5: 21.03 - 24.32 (duration: 3.29)
whisper_vad: Including segment 6: 24.77 - 25.63 (duration: 0.86)
whisper_vad: Including segment 7: 26.27 - 27.65 (duration: 1.38)
whisper_vad: total duration of speech segments: 17.49 seconds
whisper_vad: vad_segment_info: orig_start: 0.71, orig_end: 1.69, vad_start: 0.00, vad_end: 0.98
whisper_vad: vad_segment_info: orig_start: 3.36, orig_end: 6.97, vad_start: 1.18, vad_end: 4.79
whisper_vad: vad_segment_info: orig_start: 8.87, orig_end: 10.08, vad_start: 4.99, vad_end: 6.20
whisper_vad: vad_segment_info: orig_start: 11.84, orig_end: 15.81, vad_start: 6.40, vad_end: 10.37
whisper_vad: vad_segment_info: orig_start: 17.83, orig_end: 19.52, vad_start: 10.57, vad_end: 12.26
whisper_vad: vad_segment_info: orig_start: 21.03, orig_end: 24.22, vad_start: 12.46, vad_end: 15.65
whisper_vad: vad_segment_info: orig_start: 24.77, orig_end: 25.53, vad_start: 15.85, vad_end: 16.61
whisper_vad: vad_segment_info: orig_start: 26.27, orig_end: 27.65, vad_start: 16.81, vad_end: 18.19
whisper_vad: Created time mapping table with 23 points
whisper_vad: Reduced audio from 465920 to 291040 samples (37.5% reduction)
